<svg xmlns="http://www.w3.org/2000/svg" width="22" height="25" fill="none"><path fill="url(#a)" d="M19.531 10.938H18.36V7.421C18.36 3.33 15.03 0 10.937 0 6.846 0 3.516 3.33 3.516 7.422v3.516H2.344A2.344 2.344 0 0 0 0 13.28v9.375A2.344 2.344 0 0 0 2.344 25H19.53a2.344 2.344 0 0 0 2.344-2.344v-9.375a2.344 2.344 0 0 0-2.344-2.344Zm-5.078 0H7.422V7.421a3.52 3.52 0 0 1 3.516-3.516 3.52 3.52 0 0 1 3.515 3.516v3.516Z"/><defs><linearGradient id="a" x1="10.938" x2="10.938" y1="0" y2="25" gradientUnits="userSpaceOnUse"><stop stop-color="#7B27DD"/><stop offset="1" stop-color="#3606B2"/></linearGradient></defs></svg>